<svg width="48" height="39" viewBox="0 0 48 39" fill="none" xmlns="http://www.w3.org/2000/svg">
<path d="M46.6896 33.6032C47.036 33.6032 47.3081 33.7022 47.506 33.9001C47.7534 34.1475 47.8771 34.4444 47.8771 34.7907V37.1657C47.8771 37.5121 47.7534 37.7842 47.506 37.9821C47.3081 38.2295 47.036 38.3532 46.6896 38.3532H1.56463C1.21827 38.3532 0.921399 38.2295 0.674004 37.9821C0.476087 37.7842 0.377129 37.5121 0.377129 37.1657V34.7907C0.377129 34.4444 0.476087 34.1475 0.674004 33.9001C0.921399 33.7022 1.21827 33.6032 1.56463 33.6032H3.4201L21.1584 9.11105L17.2248 3.61887C16.7795 2.97564 16.8784 2.43137 17.5217 1.98605L19.3771 0.575897C20.0204 0.130585 20.5894 0.229543 21.0842 0.872772L24.1271 5.02902L27.1701 0.872772C27.6649 0.229543 28.2339 0.130585 28.8771 0.575897L30.7326 1.98605C31.3758 2.43137 31.4748 2.97564 31.0295 3.61887L27.0959 9.11105L44.8342 33.6032H46.6896ZM24.1271 21.7282L15.5178 33.6032H32.7365L24.1271 21.7282Z" fill="white"/>
</svg>
