<svg width="25" height="22" viewBox="0 0 25 22" fill="none" xmlns="http://www.w3.org/2000/svg">
<path d="M3.5625 3.35938C5.90625 1.45312 8.73438 0.5 12.0469 0.5C15.3594 0.5 18.1875 1.45312 20.5312 3.35938C22.875 5.26562 24.0469 7.5625 24.0469 10.25C24.0469 12.9375 22.875 15.2344 20.5312 17.1406C18.1875 19.0469 15.3594 20 12.0469 20C10.5781 20 9.125 19.7812 7.6875 19.3438C5.65625 20.7812 3.48438 21.5 1.17188 21.5C0.671875 21.5 0.328125 21.2656 0.140625 20.7969C-0.046875 20.3594 0.015625 19.9688 0.328125 19.625C0.390625 19.5625 0.53125 19.4062 0.75 19.1562C1 18.875 1.29688 18.4531 1.64062 17.8906C2.01562 17.2969 2.3125 16.7188 2.53125 16.1562C0.875 14.4062 0.046875 12.4375 0.046875 10.25C0.046875 7.5625 1.21875 5.26562 3.5625 3.35938ZM12.0469 17.75C14.7344 17.75 17.0312 17.0156 18.9375 15.5469C20.8438 14.0781 21.7969 12.3125 21.7969 10.25C21.7969 8.1875 20.8438 6.42188 18.9375 4.95312C17.0312 3.48438 14.7344 2.75 12.0469 2.75C9.35938 2.75 7.0625 3.48438 5.15625 4.95312C3.25 6.42188 2.29688 8.1875 2.29688 10.25C2.29688 11.8438 2.92188 13.2969 4.17188 14.6094L5.10938 15.6406L4.64062 16.9531C4.39062 17.5781 4.07812 18.2188 3.70312 18.875C4.64062 18.5625 5.53125 18.0938 6.375 17.4688L7.3125 16.8594L8.39062 17.1875C9.57812 17.5625 10.7969 17.75 12.0469 17.75Z" fill="white"/>
</svg>
