<svg width="9" height="15" viewBox="0 0 9 15" fill="none" xmlns="http://www.w3.org/2000/svg">
<path d="M0.375 7.01953L6.21875 1.17578C6.41927 0.97526 6.66276 0.875 6.94922 0.875C7.23568 0.875 7.47917 0.97526 7.67969 1.17578L8.625 2.16406C8.82552 2.36458 8.92578 2.60807 8.92578 2.89453C8.92578 3.18099 8.82552 3.42448 8.625 3.625L4.5 7.75L8.625 11.875C8.76823 12.0182 8.85417 12.1758 8.88281 12.3477C8.9401 12.5195 8.9401 12.7057 8.88281 12.9062C8.85417 13.0781 8.76823 13.2214 8.625 13.3359L7.67969 14.3242C7.47917 14.5247 7.23568 14.625 6.94922 14.625C6.66276 14.625 6.41927 14.5247 6.21875 14.3242L0.375 8.48047C0.174479 8.27995 0.0742188 8.03646 0.0742188 7.75C0.0742188 7.46354 0.174479 7.22005 0.375 7.01953Z" fill="white"/>
</svg>
