<svg width="46" height="36" viewBox="0 0 46 36" fill="none" xmlns="http://www.w3.org/2000/svg">
<path d="M21.9531 9.5625C22.1615 9.45833 22.3698 9.40625 22.5781 9.40625C22.7865 9.40625 22.9948 9.45833 23.2031 9.5625L37.5781 21.4375V34.25C37.5781 34.6146 37.4479 34.901 37.1875 35.1094C36.9792 35.3698 36.6927 35.5 36.3281 35.5H27.5781C27.2135 35.5 26.901 35.3698 26.6406 35.1094C26.4323 34.849 26.3281 34.5625 26.3281 34.25V26.75C26.3281 26.5417 26.276 26.3333 26.1719 26.125C26.0677 25.9167 25.9115 25.7604 25.7031 25.6562C25.4948 25.5521 25.2865 25.5 25.0781 25.5H20.0781C19.7135 25.5 19.401 25.6302 19.1406 25.8906C18.9323 26.099 18.8281 26.3854 18.8281 26.75V34.25C18.8281 34.5625 18.6979 34.849 18.4375 35.1094C18.2292 35.3698 17.9427 35.5 17.5781 35.5H8.82812C8.46354 35.5 8.15104 35.3698 7.89062 35.1094C7.68229 34.901 7.57812 34.6146 7.57812 34.25V21.4375L21.9531 9.5625ZM44.7656 17.6094C44.974 17.8177 45.0781 18.0781 45.0781 18.3906C45.0781 18.599 45 18.7812 44.8438 18.9375L42.8906 21.3594C42.6823 21.6198 42.4479 21.75 42.1875 21.75C41.9271 21.75 41.7188 21.6719 41.5625 21.5156L23.2031 6.35938C22.9948 6.25521 22.7865 6.20312 22.5781 6.20312C22.3698 6.20312 22.1615 6.25521 21.9531 6.35938L3.59375 21.5156C3.4375 21.6719 3.25521 21.75 3.04688 21.75C2.73438 21.75 2.47396 21.6198 2.26562 21.3594L0.3125 18.9375C0.15625 18.7812 0.078125 18.599 0.078125 18.3906C0.078125 18.0781 0.182292 17.8177 0.390625 17.6094L20.1562 1.35938C20.8854 0.786458 21.6927 0.5 22.5781 0.5C23.4635 0.5 24.2448 0.786458 24.9219 1.35938L31.9531 7.14062V1.4375C31.9531 1.17708 32.0312 0.96875 32.1875 0.8125C32.3958 0.604167 32.6302 0.5 32.8906 0.5H37.2656C37.526 0.5 37.7344 0.604167 37.8906 0.8125C38.099 0.96875 38.2031 1.17708 38.2031 1.4375V12.2969L44.7656 17.6094Z" fill="white"/>
</svg>
