<svg width="43" height="39" viewBox="0 0 43 39" fill="none" xmlns="http://www.w3.org/2000/svg">
<path d="M14.7759 3.17224C16.6066 1.34151 18.8084 0.426147 21.3814 0.426147C23.9543 0.426147 26.1561 1.34151 27.9868 3.17224C29.8176 5.00297 30.7329 7.20479 30.7329 9.77771C30.7329 12.8454 27.9126 17.6944 22.272 24.3246C22.0246 24.6215 21.7277 24.7699 21.3814 24.7699C21.035 24.7699 20.7381 24.6215 20.4907 24.3246C14.8501 17.6944 12.0298 12.8454 12.0298 9.77771C12.0298 7.20479 12.9452 5.00297 14.7759 3.17224ZM19.1548 12.0043C19.798 12.598 20.5402 12.8949 21.3814 12.8949C22.2225 12.8949 22.9399 12.598 23.5337 12.0043C24.1769 11.361 24.4985 10.6189 24.4985 9.77771C24.4985 8.93656 24.1769 8.21912 23.5337 7.62537C22.9399 6.98214 22.2225 6.66052 21.3814 6.66052C20.5402 6.66052 19.798 6.98214 19.1548 7.62537C18.561 8.21912 18.2642 8.93656 18.2642 9.77771C18.2642 10.6189 18.561 11.361 19.1548 12.0043ZM1.49073 16.4574L10.3228 12.8949C10.6691 13.9834 11.1886 15.1462 11.8814 16.3832V33.6761L1.63917 38.3519C1.44125 38.4509 1.24333 38.4756 1.04542 38.4261C0.847501 38.3767 0.674324 38.3024 0.525887 38.2035C0.377449 38.1045 0.253751 37.9561 0.154793 37.7582C0.0558345 37.6097 0.00635529 37.4366 0.00635529 37.2386V18.684C0.00635529 18.2386 0.154793 17.7933 0.451668 17.348C0.748543 16.9027 1.0949 16.6058 1.49073 16.4574ZM18.6353 25.8832C19.3774 26.7243 20.2928 27.1449 21.3814 27.1449C22.4699 27.1449 23.3853 26.7243 24.1274 25.8832C25.7603 23.904 27.2199 21.9991 28.5064 20.1683V38.4261L14.2564 33.6761V20.1683C15.5428 21.9991 17.0024 23.904 18.6353 25.8832ZM41.1235 12.3754C41.4204 12.2764 41.6678 12.2764 41.8657 12.3754C42.1131 12.4248 42.311 12.5485 42.4595 12.7465C42.6574 12.9444 42.7564 13.1918 42.7564 13.4886V32.0433C42.7564 32.3402 42.6821 32.6371 42.5337 32.934C42.4347 33.2308 42.2616 33.503 42.0142 33.7504C41.7668 33.9978 41.5194 34.1709 41.272 34.2699L30.8814 38.4261V17.0511L41.1235 12.3754Z" fill="white"/>
</svg>
