<svg width="44" height="39" viewBox="0 0 44 39" fill="none" xmlns="http://www.w3.org/2000/svg">
<path d="M41.1271 13.8651C42.7105 14.7557 43.5021 16.1164 43.5021 17.9471C43.5021 19.7778 42.7105 21.1385 41.1271 22.0291V33.3846C41.1271 33.8794 40.9292 34.3989 40.5334 34.9432C40.1375 35.4875 39.5438 35.7596 38.7521 35.7596C38.2079 35.7596 37.7131 35.5864 37.2678 35.2401L30.9592 30.1932C27.6935 27.5708 23.9579 26.2596 19.7521 26.2596H17.674C17.4761 27.0513 17.3771 27.8429 17.3771 28.6346C17.3771 30.7622 18.0204 32.6672 19.3068 34.3495C19.8511 35.1411 19.9006 35.9575 19.4553 36.7987C19.0099 37.6893 18.3172 38.1346 17.3771 38.1346H11.8107C10.8211 38.1346 10.1284 37.714 9.7326 36.8729C8.49562 34.2505 7.87713 31.5044 7.87713 28.6346C7.87713 27.8429 7.92661 27.0513 8.02557 26.2596H5.50213C4.16619 26.2596 3.02817 25.8143 2.08807 24.9237C1.19744 23.9836 0.752129 22.8456 0.752129 21.5096V14.3846C0.752129 13.0487 1.19744 11.9354 2.08807 11.0448C3.02817 10.1047 4.16619 9.63461 5.50213 9.63461H19.7521C23.9579 9.63461 27.6935 8.32342 30.9592 5.70102L37.2678 0.654144C37.7131 0.30779 38.2079 0.134613 38.7521 0.134613C39.5438 0.134613 40.1375 0.406748 40.5334 0.951019C40.9292 1.49529 41.1271 2.01482 41.1271 2.50961V13.8651ZM36.3771 28.412V7.48227L33.9279 9.41196C29.7717 12.7271 25.0464 14.3846 19.7521 14.3846V21.5096C25.0464 21.5096 29.7717 23.1672 33.9279 26.4823L36.3771 28.412Z" fill="white"/>
</svg>
