<svg width="40" height="32" viewBox="0 0 40 32" fill="none" xmlns="http://www.w3.org/2000/svg">
<path d="M29.3304 6.12054C30.7292 7.87649 31.4286 9.78869 31.4286 11.8571C31.4286 13.9256 30.7292 15.8378 29.3304 17.5938C27.9315 19.3497 26.0193 20.7411 23.5938 21.7679C21.183 22.7798 18.5565 23.2857 15.7143 23.2857C14.4345 23.2857 13.125 23.1667 11.7857 22.9286C9.94048 24.2381 7.87202 25.1905 5.58036 25.7857C5.04464 25.9196 4.40476 26.0387 3.66071 26.1429H3.59375C3.43006 26.1429 3.27381 26.0833 3.125 25.9643C2.99107 25.8452 2.90923 25.689 2.87946 25.4955C2.86458 25.4509 2.85714 25.4062 2.85714 25.3616C2.85714 25.3021 2.85714 25.25 2.85714 25.2054C2.87202 25.1607 2.8869 25.1161 2.90179 25.0714C2.93155 25.0268 2.95387 24.9896 2.96875 24.9598C2.98363 24.9301 3.00595 24.8929 3.03571 24.8482C3.08036 24.7887 3.11012 24.7515 3.125 24.7366C3.15476 24.7068 3.19196 24.6696 3.23661 24.625C3.28125 24.5655 3.31101 24.5283 3.32589 24.5134C3.4003 24.4241 3.57143 24.2381 3.83929 23.9554C4.10714 23.6726 4.3006 23.4568 4.41964 23.308C4.53869 23.1443 4.70238 22.9286 4.91071 22.6607C5.13393 22.378 5.31994 22.0878 5.46875 21.7902C5.63244 21.4926 5.78869 21.1652 5.9375 20.808C4.09226 19.7366 2.64137 18.4196 1.58482 16.8571C0.528274 15.2946 0 13.628 0 11.8571C0 9.78869 0.699405 7.87649 2.09821 6.12054C3.49702 4.36458 5.40179 2.98065 7.8125 1.96875C10.2381 0.941963 12.872 0.428571 15.7143 0.428571C18.5565 0.428571 21.183 0.941963 23.5938 1.96875C26.0193 2.98065 27.9315 4.36458 29.3304 6.12054ZM40 17.5714C40 19.3571 39.4717 21.0312 38.4152 22.5938C37.3586 24.1414 35.9077 25.4509 34.0625 26.5223C34.2113 26.8795 34.3601 27.2068 34.5089 27.5045C34.6726 27.8021 34.8586 28.0923 35.067 28.375C35.2902 28.6429 35.4613 28.8512 35.5804 29C35.6994 29.1637 35.8929 29.3869 36.1607 29.6696C36.4286 29.9524 36.5997 30.1384 36.6741 30.2277C36.689 30.2426 36.7188 30.2723 36.7634 30.317C36.808 30.3765 36.8378 30.4137 36.8527 30.4286C36.8824 30.4583 36.9122 30.4955 36.942 30.5402C36.9866 30.5997 37.0164 30.6443 37.0313 30.6741C37.0461 30.7039 37.061 30.7411 37.0759 30.7857C37.1057 30.8304 37.1205 30.875 37.1205 30.9196C37.1354 30.9643 37.1429 31.0089 37.1429 31.0536C37.1429 31.1131 37.1354 31.1652 37.1205 31.2098C37.0759 31.4182 36.9792 31.5818 36.8304 31.7009C36.6815 31.8199 36.5179 31.872 36.3393 31.8571C35.5952 31.753 34.9554 31.6339 34.4196 31.5C32.128 30.9048 30.0595 29.9524 28.2143 28.6429C26.875 28.881 25.5655 29 24.2857 29C20.253 29 16.7411 28.0179 13.75 26.0536C14.6131 26.1131 15.2679 26.1429 15.7143 26.1429C18.1101 26.1429 20.4092 25.808 22.6116 25.1384C24.814 24.4687 26.7783 23.5089 28.5045 22.2589C30.3646 20.8899 31.7932 19.3125 32.7902 17.5268C33.7872 15.7411 34.2857 13.8512 34.2857 11.8571C34.2857 10.7113 34.1146 9.58036 33.7723 8.46429C35.692 9.52083 37.2098 10.8452 38.3259 12.4375C39.442 14.0298 40 15.7411 40 17.5714Z" fill="white"/>
</svg>
