<svg width="45" height="30" viewBox="0 0 45 30" fill="none" xmlns="http://www.w3.org/2000/svg">
<path d="M43.125 0C43.6458 0 44.0885 0.182292 44.4531 0.546875C44.8177 0.911458 45 1.35417 45 1.875V26.25C45 27.2917 44.6354 28.1771 43.9062 28.9062C43.1771 29.6354 42.2917 30 41.25 30H4.375C3.17708 30 2.13542 29.5833 1.25 28.75C0.416667 27.8646 0 26.8229 0 25.625V4.375C0 3.85417 0.182292 3.41146 0.546875 3.04688C0.911458 2.68229 1.35417 2.5 1.875 2.5H5V1.875C5 1.35417 5.18229 0.911458 5.54688 0.546875C5.91146 0.182292 6.35417 0 6.875 0H43.125ZM3.75 25.625C3.75 26.0417 3.95833 26.25 4.375 26.25C4.79167 26.25 5 26.0417 5 25.625V6.25H3.75V25.625ZM22.8125 25C23.4375 25 23.75 24.6875 23.75 24.0625V23.4375C23.75 22.8125 23.4375 22.5 22.8125 22.5H10.9375C10.3125 22.5 10 22.8125 10 23.4375V24.0625C10 24.6875 10.3125 25 10.9375 25H22.8125ZM39.0625 25C39.6875 25 40 24.6875 40 24.0625V23.4375C40 22.8125 39.6875 22.5 39.0625 22.5H27.1875C26.5625 22.5 26.25 22.8125 26.25 23.4375V24.0625C26.25 24.6875 26.5625 25 27.1875 25H39.0625ZM22.8125 17.5C23.4375 17.5 23.75 17.1875 23.75 16.5625V15.9375C23.75 15.3125 23.4375 15 22.8125 15H10.9375C10.3125 15 10 15.3125 10 15.9375V16.5625C10 17.1875 10.3125 17.5 10.9375 17.5H22.8125ZM39.0625 17.5C39.6875 17.5 40 17.1875 40 16.5625V15.9375C40 15.3125 39.6875 15 39.0625 15H27.1875C26.5625 15 26.25 15.3125 26.25 15.9375V16.5625C26.25 17.1875 26.5625 17.5 27.1875 17.5H39.0625ZM39.0625 10C39.6875 10 40 9.6875 40 9.0625V5.9375C40 5.3125 39.6875 5 39.0625 5H10.9375C10.3125 5 10 5.3125 10 5.9375V9.0625C10 9.6875 10.3125 10 10.9375 10H39.0625Z" fill="white"/>
</svg>
