<svg width="35" height="40" viewBox="0 0 35 40" fill="none" xmlns="http://www.w3.org/2000/svg">
<path d="M24.5312 17.1094C22.6042 19.0365 20.2604 20 17.5 20C14.7396 20 12.3698 19.0365 10.3906 17.1094C8.46354 15.1302 7.5 12.7604 7.5 10C7.5 7.23958 8.46354 4.89583 10.3906 2.96875C12.3698 0.989583 14.7396 0 17.5 0C20.2604 0 22.6042 0.989583 24.5312 2.96875C26.5104 4.89583 27.5 7.23958 27.5 10C27.5 12.7604 26.5104 15.1302 24.5312 17.1094ZM24.5312 22.5C27.3958 22.5 29.8438 23.5417 31.875 25.625C33.9583 27.6562 35 30.1042 35 32.9688V36.25C35 37.2917 34.6354 38.1771 33.9062 38.9062C33.1771 39.6354 32.2917 40 31.25 40H3.75C2.70833 40 1.82292 39.6354 1.09375 38.9062C0.364583 38.1771 0 37.2917 0 36.25V32.9688C0 30.1042 1.01562 27.6562 3.04688 25.625C5.13021 23.5417 7.60417 22.5 10.4688 22.5H11.7969C13.6198 23.3333 15.5208 23.75 17.5 23.75C19.4792 23.75 21.3802 23.3333 23.2031 22.5H24.5312Z" fill="white"/>
</svg>
