<svg width="38" height="38" viewBox="0 0 38 38" fill="none" xmlns="http://www.w3.org/2000/svg">
<path d="M6.06463 5.77386C9.67661 2.16189 14.0308 0.355896 19.1271 0.355896C24.2235 0.355896 28.5529 2.16189 32.1154 5.77386C35.7274 9.33636 37.5334 13.6658 37.5334 18.7621C37.5334 23.8585 35.7274 28.2127 32.1154 31.8246C28.5529 35.3871 24.2235 37.1684 19.1271 37.1684C14.0308 37.1684 9.67661 35.3871 6.06463 31.8246C2.50213 28.2127 0.720879 23.8585 0.720879 18.7621C0.720879 13.6658 2.50213 9.33636 6.06463 5.77386ZM23.3576 26.3325C23.8524 26.6788 24.273 26.6293 24.6193 26.184L26.6974 23.2895C27.0438 22.7947 26.9943 22.3741 26.549 22.0278L21.799 18.6137V8.37152C21.799 7.77777 21.5021 7.4809 20.9084 7.4809H17.3459C16.7521 7.4809 16.4553 7.77777 16.4553 8.37152V20.8403C16.4553 21.1371 16.579 21.3845 16.8263 21.5825L23.3576 26.3325Z" fill="white"/>
</svg>
