<svg width="111" height="160" viewBox="0 0 111 160" fill="none" xmlns="http://www.w3.org/2000/svg">
<path d="M105.5 60C106.958 60 108.104 60.5208 108.938 61.5625C109.979 62.3958 110.5 63.5417 110.5 65V80C110.5 93.75 105.917 105.833 96.75 116.25C87.7917 126.458 76.5417 132.5 63 134.375V145H80.5C81.9583 145 83.1042 145.417 83.9375 146.25C84.9792 147.292 85.5 148.542 85.5 150V155C85.5 156.458 84.9792 157.604 83.9375 158.438C83.1042 159.479 81.9583 160 80.5 160H30.5C29.0417 160 27.7917 159.479 26.75 158.438C25.9167 157.604 25.5 156.458 25.5 155V150C25.5 148.542 25.9167 147.292 26.75 146.25C27.7917 145.417 29.0417 145 30.5 145H48V134.375C34.4583 132.5 23.1042 126.146 13.9375 115.312C4.97917 104.271 0.5 91.6667 0.5 77.5V65C0.5 63.5417 0.916667 62.3958 1.75 61.5625C2.79167 60.5208 4.04167 60 5.5 60H10.5C11.9583 60 13.1042 60.5208 13.9375 61.5625C14.9792 62.3958 15.5 63.5417 15.5 65V78.125C15.5 88.75 18.9375 98.125 25.8125 106.25C32.6875 114.375 41.2292 118.854 51.4375 119.688C63.3125 120.938 73.625 117.604 82.375 109.688C91.125 101.562 95.5 91.6667 95.5 80V65C95.5 63.5417 95.9167 62.3958 96.75 61.5625C97.7917 60.5208 99.0417 60 100.5 60H105.5ZM76.75 101.25C70.9167 107.083 63.8333 110 55.5 110C47.1667 110 40.0833 107.083 34.25 101.25C28.4167 95.4167 25.5 88.3333 25.5 80V30C25.5 21.6667 28.4167 14.5833 34.25 8.75C40.0833 2.91667 47.1667 0 55.5 0C63.8333 0 70.9167 2.91667 76.75 8.75C82.5833 14.5833 85.5 21.6667 85.5 30H58.9375C56.6458 30 55.5 30.8333 55.5 32.5V37.5C55.5 39.1667 56.6458 40 58.9375 40H85.5V50H58.9375C56.6458 50 55.5 50.8333 55.5 52.5V57.5C55.5 59.1667 56.6458 60 58.9375 60H85.5V70H58.9375C56.6458 70 55.5 70.8333 55.5 72.5V77.5C55.5 79.1667 56.6458 80 58.9375 80H85.5C85.5 88.3333 82.5833 95.4167 76.75 101.25Z" fill="white"/>
</svg>
