<svg width="35" height="40" viewBox="0 0 35 40" fill="none" xmlns="http://www.w3.org/2000/svg">
<path d="M27.5 25C29.5833 25 31.3542 25.7292 32.8125 27.1875C34.2708 28.6458 35 30.4167 35 32.5C35 34.5833 34.2708 36.3542 32.8125 37.8125C31.3542 39.2708 29.5833 40 27.5 40C25.4167 40 23.6458 39.2708 22.1875 37.8125C20.7292 36.3542 20 34.5833 20 32.5C20 31.9271 20.0521 31.3802 20.1562 30.8594L12.1875 25.8594C10.8333 26.9531 9.27083 27.5 7.5 27.5C5.41667 27.5 3.64583 26.7708 2.1875 25.3125C0.729167 23.8542 0 22.0833 0 20C0 17.9167 0.729167 16.1458 2.1875 14.6875C3.64583 13.2292 5.41667 12.5 7.5 12.5C9.27083 12.5 10.8333 13.0469 12.1875 14.1406L20.1562 9.14062C20.0521 8.61979 20 8.07292 20 7.5C20 5.41667 20.7292 3.64583 22.1875 2.1875C23.6458 0.729167 25.4167 0 27.5 0C29.5833 0 31.3542 0.729167 32.8125 2.1875C34.2708 3.64583 35 5.41667 35 7.5C35 9.58333 34.2708 11.3542 32.8125 12.8125C31.3542 14.2708 29.5833 15 27.5 15C25.7292 15 24.1667 14.4531 22.8125 13.3594L14.8438 18.3594C14.9479 18.8802 15 19.4271 15 20C15 20.5729 14.9479 21.1198 14.8438 21.6406L22.8125 26.6406C24.1667 25.5469 25.7292 25 27.5 25Z" fill="white"/>
</svg>
