<svg width="48" height="35" viewBox="0 0 48 35" fill="none" xmlns="http://www.w3.org/2000/svg">
<path d="M10.842 13.641C9.90187 14.5811 8.78859 15.0511 7.50213 15.0511C6.21567 15.0511 5.10239 14.5811 4.16228 13.641C3.22218 12.7009 2.75213 11.5876 2.75213 10.3011C2.75213 9.01466 3.22218 7.90138 4.16228 6.96127C5.10239 6.02117 6.21567 5.55112 7.50213 5.55112C8.78859 5.55112 9.90187 6.02117 10.842 6.96127C11.7821 7.90138 12.2521 9.01466 12.2521 10.3011C12.2521 11.5876 11.7821 12.7009 10.842 13.641ZM44.092 13.641C43.1519 14.5811 42.0386 15.0511 40.7521 15.0511C39.4657 15.0511 38.3524 14.5811 37.4123 13.641C36.4722 12.7009 36.0021 11.5876 36.0021 10.3011C36.0021 9.01466 36.4722 7.90138 37.4123 6.96127C38.3524 6.02117 39.4657 5.55112 40.7521 5.55112C42.0386 5.55112 43.1519 6.02117 44.092 6.96127C45.0321 7.90138 45.5021 9.01466 45.5021 10.3011C45.5021 11.5876 45.0321 12.7009 44.092 13.641ZM43.1271 17.4261C44.4136 17.4261 45.5269 17.8962 46.467 18.8363C47.4071 19.7764 47.8771 20.8897 47.8771 22.1761V24.5511C47.8771 25.1943 47.6297 25.7634 47.1349 26.2581C46.6896 26.7035 46.1454 26.9261 45.5021 26.9261H40.6037C40.4553 25.7881 40.1336 24.6996 39.6388 23.6605C39.1441 22.6214 38.5008 21.7061 37.7092 20.9144C36.9175 20.0733 36.0269 19.3805 35.0373 18.8363C35.9774 17.8962 37.0907 17.4261 38.3771 17.4261H43.1271ZM29.9904 14.9769C28.3576 16.6097 26.4032 17.4261 24.1271 17.4261C21.8511 17.4261 19.8967 16.6097 18.2638 14.9769C16.631 13.3441 15.8146 11.3897 15.8146 9.11362C15.8146 6.83758 16.631 4.88315 18.2638 3.25034C19.8967 1.61752 21.8511 0.801117 24.1271 0.801117C26.4032 0.801117 28.3576 1.61752 29.9904 3.25034C31.6232 4.88315 32.4396 6.83758 32.4396 9.11362C32.4396 11.3897 31.6232 13.3441 29.9904 14.9769ZM29.842 19.8011C32.217 19.8011 34.2209 20.6423 35.8537 22.3246C37.536 23.9574 38.3771 25.9613 38.3771 28.3363V30.4886C38.3771 31.4782 38.0308 32.3193 37.3381 33.0121C36.6454 33.7048 35.8042 34.0511 34.8146 34.0511H13.4396C12.45 34.0511 11.6089 33.7048 10.9162 33.0121C10.2235 32.3193 9.87713 31.4782 9.87713 30.4886V28.3363C9.87713 25.9613 10.6935 23.9574 12.3263 22.3246C14.0086 20.6423 16.0373 19.8011 18.4123 19.8011H19.0803C20.7131 20.5928 22.3954 20.9886 24.1271 20.9886C25.8589 20.9886 27.5412 20.5928 29.174 19.8011H29.842ZM13.217 18.8363C11.7326 19.6279 10.4956 20.7412 9.50603 22.1761C8.51645 23.611 7.89796 25.1943 7.65057 26.9261H2.75213C2.1089 26.9261 1.53989 26.7035 1.0451 26.2581C0.599785 25.7634 0.377129 25.1943 0.377129 24.5511V22.1761C0.377129 20.8897 0.847181 19.7764 1.78728 18.8363C2.72739 17.8962 3.84067 17.4261 5.12713 17.4261H9.87713C11.1636 17.4261 12.2769 17.8962 13.217 18.8363Z" fill="white"/>
</svg>
